<?xml version="1.0" encoding="iso-8859-1"?>
<!-- Generator: Adobe Illustrator 16.0.0, SVG Export Plug-In . SVG Version: 6.00 Build 0)  -->
<!DOCTYPE svg PUBLIC "-//W3C//DTD SVG 1.1//EN" "http://www.w3.org/Graphics/SVG/1.1/DTD/svg11.dtd">
<svg version="1.1" id="Capa_1" xmlns="http://www.w3.org/2000/svg" xmlns:xlink="http://www.w3.org/1999/xlink" x="0px" y="0px"
	 width="585.779px" height="585.779px" viewBox="0 0 585.779 585.779" style="enable-background:new 0 0 585.779 585.779;"
	 xml:space="preserve">
<g>
	<g>
		<path d="M584.89,228.214L293.812,25.876c-1.372-0.952-3.591-1.042-4.958-0.086l-67.483,47.568
			c-1.367,0.961-2.094,0.335-2.094-1.334V39.078c0-1.669-2.118-2.553-3.787-2.553h-43.839c-1.668,0-2.348,0.884-2.348,2.553v67.951
			c0,1.668-1.444,3.801-2.811,4.757L0.956,228.205c-1.367,0.961-1.291,2.128,0.378,2.128h73.569c1.669,0,2.983,0.569,2.983,2.237
			v325.014c0,1.669,1.396,3.079,3.065,3.079h420.253c1.669,0,3.309-1.405,3.309-3.079V232.57c0-1.668,1.066-2.237,2.739-2.237
			h77.098C586.019,230.333,586.263,229.166,584.89,228.214z M395.467,214.406c12.651,0,22.911,10.261,22.911,22.912
			c0,12.651-10.26,22.912-22.911,22.912c-12.656,0-22.912-10.261-22.912-22.912C372.555,224.662,382.811,214.406,395.467,214.406z
			 M271.8,345.407c3.05-0.302,6.225,1.2,8.563,2.706c0.588,0.378,1.435,0.301,1.951-0.163c2.726-2.409,6.302-3.877,10.227-3.877
			c4.083,0,7.793,1.582,10.552,4.169c0.507,0.474,1.339,0.56,1.912,0.167c2.372-1.602,5.757-3.322,9.009-3.002
			c5.871,0.583,6.674,7.951,4.608,12.105c-2.061,4.155-4.284,9.61-5.632,9.778c-1.243,0.157,2.744-9.4-0.148-12.326
			c-0.492-0.492-1.631-0.736-2.319-0.679c-0.535,0.048-1.214,0.157-1.988,0.42c-0.665,0.226-1,1.028-0.856,1.707
			c0.206,1.004,0.315,2.047,0.315,3.117c0,8.53-6.918,15.449-15.448,15.449s-15.443-6.919-15.443-15.449
			c0-1.176,0.129-2.318,0.377-3.418c0.148-0.674-0.196-1.439-0.87-1.606c-0.497-0.124-0.937-0.191-1.31-0.22
			c-0.698-0.058-1.831,0.187-2.319,0.679c-2.893,2.921,1.085,12.483-0.148,12.326c-1.363-0.168-3.577-5.623-5.642-9.778
			C265.13,353.354,265.928,345.985,271.8,345.407z M189.237,214.406c12.651,0,22.912,10.261,22.912,22.912
			c0,12.651-10.26,22.912-22.912,22.912c-12.656,0-22.912-10.261-22.912-22.912C166.325,224.662,176.586,214.406,189.237,214.406z
			 M446.817,390.929c-6.589,0-11.935-5.34-11.939-11.934c-0.004,0-0.014-72.909-0.014-72.909c0-0.688-0.555-1.243-1.243-1.243
			h-2.529c-0.688,0-1.243,0.555-1.243,1.243c0,0,0,204.542,0,204.565c0,8.506-6.895,15.396-15.396,15.396
			c-8.506,0-15.396-6.895-15.396-15.396c0-0.023,0-120.363,0-120.363c0-0.875-0.406-1.243-1.272-1.243h-2.481
			c-0.865,0-1.271,0.368-1.271,1.243c0,0,0,120.34,0,120.363c0,8.506-6.895,15.396-15.396,15.396
			c-8.506,0-15.396-6.895-15.396-15.396c0-0.023,0-204.565,0-204.565c0-0.688-0.555-1.243-1.243-1.243h-2.529
			c-0.688,0-1.243,0.555-1.243,1.243c0,0-8.816,53.431-8.826,53.436c-0.713,3.872-2.62,7.344-4.031,9.901
			c-6.913,12.183-22.304,38.948-22.304,38.948c-0.359,0.598-0.531,1.636-0.393,2.319l10.332,59.053
			c0.139,0.679-0.311,1.233-1.009,1.233h-6.67v40.636c-0.119,7.426-6.583,14.439-14.716,14.439c-8.134,0-15.468-6.976-15.587-14.396
			l-0.005-37.413c0-0.684-0.555-1.238-1.239-1.238H292c-0.684,0-1.239,0.555-1.239,1.238l-0.004,37.413
			c-0.12,7.426-7.454,14.396-15.587,14.396c-8.138,0-14.597-7.014-14.717-14.439v-40.636h-6.67c-0.698,0-1.147-0.55-1.009-1.233
			l10.333-59.053c0.139-0.684-0.034-1.722-0.392-2.319c0,0-15.391-26.771-22.305-38.948c-1.411-2.558-3.318-6.029-4.031-9.901
			c-0.005,0-8.826-53.436-8.826-53.436c0-0.688-0.555-1.243-1.243-1.243h-2.529c-0.688,0-1.243,0.555-1.243,1.243
			c0,0,0,204.542,0,204.565c0,8.506-6.895,15.396-15.396,15.396c-8.506,0-15.396-6.895-15.396-15.396c0-0.023,0-120.363,0-120.363
			c0-0.875-0.406-1.243-1.272-1.243h-2.481c-0.865,0-1.271,0.368-1.271,1.243c0,0,0,120.34,0,120.363
			c0,8.506-6.895,15.396-15.396,15.396c-8.506,0-15.396-6.895-15.396-15.396c0-0.023,0-204.565,0-204.565
			c0-0.688-0.555-1.243-1.243-1.243h-2.524c-0.688,0-1.243,0.555-1.243,1.243c0,0-0.009,72.909-0.014,72.909
			c-0.005,6.589-5.35,11.934-11.939,11.934c-6.593,0-11.943-5.345-11.943-11.943c0-0.038,0-81.979,0-82.954
			c0-16.337,12.57-28.907,28.281-28.907c0.402,0,67.473,0,67.875,0c15.711,0,28.281,12.57,28.281,28.907
			c0,0.87,6.99,51.608,8.764,62.893l13.412,22.285c0.363,0.593,1.224,1.071,1.917,1.071h15.788h3.093h15.788
			c0.698,0,1.559-0.479,1.917-1.071l13.412-22.285c1.778-11.284,8.764-62.022,8.764-62.893c0-16.337,12.57-28.907,28.281-28.907
			c0.401,0,67.473,0,67.874,0c15.712,0,28.281,12.57,28.281,28.907c0.005,0.979,0.005,82.921,0.005,82.959
			C458.761,385.584,453.41,390.929,446.817,390.929z"/>
	</g>
</g>
<g>
</g>
<g>
</g>
<g>
</g>
<g>
</g>
<g>
</g>
<g>
</g>
<g>
</g>
<g>
</g>
<g>
</g>
<g>
</g>
<g>
</g>
<g>
</g>
<g>
</g>
<g>
</g>
<g>
</g>
</svg>
